<svg xmlns="http://www.w3.org/2000/svg" viewBox="0 0 800 320" preserveAspectRatio="xMidYMid slice"><defs><linearGradient id="g" x1="0" y1="0" x2="0" y2="1"><stop offset="0" stop-color="#f7e2c4"/><stop offset="1" stop-color="#f3d2a8"/></linearGradient></defs><rect width="800" height="320" fill="url(#g)"/><rect x="0" y="0" width="20" height="250" fill="#f0cfa0"/><rect x="60" y="0" width="20" height="250" fill="#f0cfa0"/><rect x="120" y="0" width="20" height="250" fill="#f0cfa0"/><rect x="180" y="0" width="20" height="250" fill="#f0cfa0"/><rect x="240" y="0" width="20" height="250" fill="#f0cfa0"/><rect x="300" y="0" width="20" height="250" fill="#f0cfa0"/><rect x="360" y="0" width="20" height="250" fill="#f0cfa0"/><rect x="420" y="0" width="20" height="250" fill="#f0cfa0"/><rect x="480" y="0" width="20" height="250" fill="#f0cfa0"/><rect x="540" y="0" width="20" height="250" fill="#f0cfa0"/><rect x="600" y="0" width="20" height="250" fill="#f0cfa0"/><rect x="660" y="0" width="20" height="250" fill="#f0cfa0"/><rect x="720" y="0" width="20" height="250" fill="#f0cfa0"/><rect x="780" y="0" width="20" height="250" fill="#f0cfa0"/><rect x="40" y="40" width="160" height="130" rx="8" fill="#9fd8ff" stroke="#fff" stroke-width="10"/><line x1="120" y1="40" x2="120" y2="170" stroke="#fff" stroke-width="8"/><line x1="40" y1="105" x2="200" y2="105" stroke="#fff" stroke-width="8"/><rect x="620" y="90" width="120" height="160" fill="#a0673a"/><rect x="630" y="100" width="14" height="40" fill="#e8590c"/><rect x="648" y="106" width="14" height="34" fill="#4dabf7"/><rect x="666" y="100" width="14" height="28" fill="#69db7c"/><rect x="684" y="106" width="14" height="40" fill="#ffd43b"/><rect x="702" y="100" width="14" height="34" fill="#9775fa"/><rect x="720" y="106" width="14" height="28" fill="#ff6b6b"/><rect x="620" y="150" width="120" height="8" fill="#7a4a28"/><rect x="0" y="250" width="800" height="70" fill="#c98a5a"/><ellipse cx="400" cy="300" rx="330" ry="26" fill="#e06a6a"/><g transform="translate(250 250)"><rect x="-18" y="-40" width="36" height="40" rx="6" fill="#d9480f"/><ellipse cx="0" cy="-60" rx="30" ry="26" fill="#40c057"/></g></svg>