<svg xmlns="http://www.w3.org/2000/svg" viewBox="0 0 800 320" preserveAspectRatio="xMidYMid slice"><defs><linearGradient id="g" x1="0" y1="0" x2="0" y2="1"><stop offset="0" stop-color="#0b0930"/><stop offset="1" stop-color="#2a1466"/></linearGradient></defs><rect width="800" height="320" fill="url(#g)"/><circle cx="107" cy="271" r="2.0" fill="#fff" opacity="0.63"/><circle cx="396" cy="144" r="1.8" fill="#fff" opacity="0.89"/><circle cx="75" cy="9" r="2.1" fill="#fff" opacity="0.72"/><circle cx="610" cy="1" r="1.5" fill="#fff" opacity="0.86"/><circle cx="183" cy="302" r="2.2" fill="#fff" opacity="0.52"/><circle cx="20" cy="173" r="2.3" fill="#fff" opacity="0.69"/><circle cx="173" cy="135" r="0.8" fill="#fff" opacity="0.61"/><circle cx="350" cy="159" r="1.2" fill="#fff" opacity="0.62"/><circle cx="175" cy="147" r="1.3" fill="#fff" opacity="0.51"/><circle cx="670" cy="178" r="1.8" fill="#fff" opacity="0.59"/><circle cx="794" cy="275" r="1.0" fill="#fff" opacity="0.67"/><circle cx="577" cy="228" r="2.3" fill="#fff" opacity="0.71"/><circle cx="664" cy="214" r="1.3" fill="#fff" opacity="0.79"/><circle cx="706" cy="271" r="1.6" fill="#fff" opacity="0.79"/><circle cx="28" cy="78" r="2.1" fill="#fff" opacity="0.71"/><circle cx="138" cy="176" r="1.9" fill="#fff" opacity="0.84"/><circle cx="300" cy="140" r="1.6" fill="#fff" opacity="0.89"/><circle cx="417" cy="126" r="1.6" fill="#fff" opacity="0.51"/><circle cx="35" cy="225" r="2.4" fill="#fff" opacity="0.80"/><circle cx="315" cy="55" r="1.6" fill="#fff" opacity="0.99"/><circle cx="616" cy="173" r="2.2" fill="#fff" opacity="0.62"/><circle cx="411" cy="305" r="1.7" fill="#fff" opacity="0.73"/><circle cx="215" cy="175" r="2.3" fill="#fff" opacity="0.50"/><circle cx="627" cy="263" r="2.2" fill="#fff" opacity="0.87"/><circle cx="647" cy="166" r="1.7" fill="#fff" opacity="0.71"/><circle cx="45" cy="278" r="1.7" fill="#fff" opacity="0.60"/><circle cx="404" cy="155" r="1.4" fill="#fff" opacity="0.67"/><circle cx="431" cy="200" r="1.8" fill="#fff" opacity="0.73"/><circle cx="22" cy="73" r="1.1" fill="#fff" opacity="0.79"/><circle cx="689" cy="256" r="2.1" fill="#fff" opacity="0.91"/><circle cx="204" cy="269" r="1.9" fill="#fff" opacity="0.54"/><circle cx="13" cy="5" r="2.0" fill="#fff" opacity="0.62"/><circle cx="88" cy="200" r="1.4" fill="#fff" opacity="0.53"/><circle cx="128" cy="169" r="1.1" fill="#fff" opacity="0.64"/><circle cx="569" cy="146" r="1.3" fill="#fff" opacity="0.74"/><circle cx="19" cy="124" r="1.5" fill="#fff" opacity="0.59"/><circle cx="87" cy="288" r="1.6" fill="#fff" opacity="0.60"/><circle cx="485" cy="261" r="0.8" fill="#fff" opacity="0.51"/><circle cx="117" cy="230" r="1.1" fill="#fff" opacity="0.85"/><circle cx="543" cy="174" r="1.2" fill="#fff" opacity="0.99"/><circle cx="638" cy="165" r="1.2" fill="#fff" opacity="0.82"/><circle cx="316" cy="184" r="1.3" fill="#fff" opacity="0.82"/><circle cx="47" cy="96" r="2.3" fill="#fff" opacity="0.94"/><circle cx="245" cy="275" r="1.3" fill="#fff" opacity="0.97"/><circle cx="595" cy="133" r="1.2" fill="#fff" opacity="0.50"/><circle cx="703" cy="12" r="2.1" fill="#fff" opacity="0.98"/><circle cx="456" cy="55" r="2.2" fill="#fff" opacity="0.99"/><circle cx="563" cy="163" r="1.4" fill="#fff" opacity="0.67"/><circle cx="165" cy="216" r="1.5" fill="#fff" opacity="0.60"/><circle cx="84" cy="213" r="1.3" fill="#fff" opacity="0.75"/><circle cx="260" cy="279" r="2.2" fill="#fff" opacity="0.51"/><circle cx="161" cy="105" r="2.4" fill="#fff" opacity="0.89"/><circle cx="271" cy="68" r="1.9" fill="#fff" opacity="0.92"/><circle cx="746" cy="110" r="2.2" fill="#fff" opacity="0.84"/><circle cx="388" cy="315" r="1.2" fill="#fff" opacity="0.86"/><circle cx="68" cy="54" r="2.3" fill="#fff" opacity="0.61"/><circle cx="607" cy="192" r="2.1" fill="#fff" opacity="0.68"/><circle cx="272" cy="93" r="2.2" fill="#fff" opacity="0.80"/><circle cx="763" cy="284" r="1.0" fill="#fff" opacity="0.78"/><circle cx="83" cy="13" r="0.9" fill="#fff" opacity="0.93"/><circle cx="630" cy="265" r="1.3" fill="#fff" opacity="0.81"/><circle cx="626" cy="121" r="1.7" fill="#fff" opacity="0.61"/><circle cx="65" cy="85" r="2.2" fill="#fff" opacity="0.78"/><circle cx="740" cy="146" r="1.2" fill="#fff" opacity="0.89"/><circle cx="662" cy="4" r="1.9" fill="#fff" opacity="0.55"/><circle cx="92" cy="283" r="0.9" fill="#fff" opacity="0.62"/><circle cx="791" cy="135" r="1.0" fill="#fff" opacity="0.58"/><circle cx="193" cy="238" r="1.0" fill="#fff" opacity="0.96"/><circle cx="303" cy="310" r="2.3" fill="#fff" opacity="0.65"/><circle cx="203" cy="153" r="1.0" fill="#fff" opacity="0.83"/><circle cx="32" cy="3" r="2.4" fill="#fff" opacity="0.65"/><circle cx="477" cy="144" r="1.3" fill="#fff" opacity="0.53"/><circle cx="731" cy="310" r="2.4" fill="#fff" opacity="0.56"/><circle cx="172" cy="198" r="2.4" fill="#fff" opacity="0.77"/><circle cx="551" cy="212" r="1.2" fill="#fff" opacity="0.77"/><circle cx="246" cy="79" r="0.9" fill="#fff" opacity="0.64"/><circle cx="787" cy="143" r="1.8" fill="#fff" opacity="0.82"/><circle cx="753" cy="125" r="1.3" fill="#fff" opacity="0.66"/><circle cx="253" cy="271" r="2.2" fill="#fff" opacity="0.65"/><circle cx="267" cy="174" r="1.7" fill="#fff" opacity="0.80"/><circle cx="196" cy="7" r="1.2" fill="#fff" opacity="0.54"/><circle cx="441" cy="23" r="0.9" fill="#fff" opacity="0.82"/><circle cx="233" cy="253" r="1.6" fill="#fff" opacity="0.93"/><circle cx="123" cy="160" r="2.1" fill="#fff" opacity="0.54"/><circle cx="759" cy="55" r="2.0" fill="#fff" opacity="0.99"/><circle cx="657" cy="102" r="1.0" fill="#fff" opacity="0.76"/><circle cx="735" cy="94" r="2.2" fill="#fff" opacity="0.57"/><circle cx="728" cy="10" r="1.3" fill="#fff" opacity="0.95"/><circle cx="643" cy="290" r="2.1" fill="#fff" opacity="0.87"/><circle cx="552" cy="57" r="1.5" fill="#fff" opacity="0.58"/><circle cx="572" cy="214" r="1.2" fill="#fff" opacity="0.53"/><circle cx="771" cy="259" r="1.7" fill="#fff" opacity="0.77"/><circle cx="681" cy="145" r="1.4" fill="#fff" opacity="0.67"/><circle cx="206" cy="8" r="1.8" fill="#fff" opacity="0.71"/><circle cx="456" cy="20" r="1.4" fill="#fff" opacity="0.57"/><circle cx="100" cy="83" r="2.1" fill="#fff" opacity="0.70"/><circle cx="321" cy="196" r="1.2" fill="#fff" opacity="0.50"/><circle cx="423" cy="160" r="1.8" fill="#fff" opacity="0.72"/><circle cx="549" cy="234" r="1.2" fill="#fff" opacity="0.75"/><circle cx="383" cy="72" r="1.5" fill="#fff" opacity="0.78"/><circle cx="726" cy="294" r="1.2" fill="#fff" opacity="0.82"/><circle cx="39" cy="23" r="1.6" fill="#fff" opacity="0.94"/><circle cx="128" cy="245" r="2.2" fill="#fff" opacity="0.66"/><circle cx="554" cy="272" r="1.4" fill="#fff" opacity="0.85"/><circle cx="589" cy="190" r="2.2" fill="#fff" opacity="0.95"/><circle cx="768" cy="183" r="1.1" fill="#fff" opacity="0.63"/><circle cx="174" cy="182" r="2.0" fill="#fff" opacity="0.53"/><circle cx="545" cy="229" r="1.4" fill="#fff" opacity="0.76"/><circle cx="132" cy="234" r="0.9" fill="#fff" opacity="0.99"/><circle cx="646" cy="201" r="1.2" fill="#fff" opacity="0.96"/><circle cx="768" cy="45" r="2.0" fill="#fff" opacity="0.92"/><circle cx="528" cy="224" r="1.5" fill="#fff" opacity="0.96"/><circle cx="777" cy="122" r="2.1" fill="#fff" opacity="0.72"/><circle cx="132" cy="104" r="1.0" fill="#fff" opacity="0.95"/><circle cx="768" cy="38" r="1.8" fill="#fff" opacity="0.70"/><circle cx="94" cy="95" r="1.2" fill="#fff" opacity="0.87"/><circle cx="3" cy="61" r="1.5" fill="#fff" opacity="0.51"/><circle cx="502" cy="194" r="2.1" fill="#fff" opacity="0.60"/><circle cx="228" cy="174" r="1.2" fill="#fff" opacity="0.79"/><circle cx="201" cy="219" r="2.1" fill="#fff" opacity="0.90"/><circle cx="779" cy="175" r="1.6" fill="#fff" opacity="0.93"/><circle cx="615" cy="183" r="1.4" fill="#fff" opacity="0.64"/><circle cx="87" cy="258" r="1.0" fill="#fff" opacity="0.87"/><circle cx="436" cy="309" r="2.0" fill="#fff" opacity="0.99"/><circle cx="109" cy="160" r="1.7" fill="#fff" opacity="0.66"/><circle cx="402" cy="114" r="1.6" fill="#fff" opacity="0.50"/><circle cx="354" cy="144" r="1.3" fill="#fff" opacity="0.70"/><circle cx="626" cy="219" r="1.6" fill="#fff" opacity="0.82"/><circle cx="302" cy="65" r="0.8" fill="#fff" opacity="0.64"/><circle cx="479" cy="282" r="2.1" fill="#fff" opacity="0.76"/><circle cx="790" cy="148" r="2.1" fill="#fff" opacity="0.70"/><circle cx="596" cy="316" r="1.3" fill="#fff" opacity="0.59"/><circle cx="496" cy="170" r="1.4" fill="#fff" opacity="0.50"/><circle cx="311" cy="136" r="1.4" fill="#fff" opacity="0.93"/><circle cx="468" cy="235" r="2.2" fill="#fff" opacity="0.87"/><circle cx="394" cy="239" r="1.8" fill="#fff" opacity="0.82"/><circle cx="504" cy="130" r="1.8" fill="#fff" opacity="0.82"/><circle cx="750" cy="250" r="2.2" fill="#fff" opacity="0.88"/><circle cx="652" cy="194" r="1.4" fill="#fff" opacity="0.63"/><circle cx="566" cy="280" r="1.7" fill="#fff" opacity="0.58"/><circle cx="640" cy="90" r="46" fill="#ff9f5a"/><circle cx="628" cy="78" r="46" fill="#ffb877" opacity=".5"/><ellipse cx="640" cy="92" rx="82" ry="14" fill="none" stroke="#ffd9a0" stroke-width="6" transform="rotate(-18 640 92)"/><circle cx="140" cy="230" r="26" fill="#8fd3ff"/><circle cx="132" cy="222" r="7" fill="#6bb6e6"/><circle cx="150" cy="238" r="5" fill="#6bb6e6"/><circle cx="420" cy="60" r="14" fill="#e7e2ff"/></svg>